<!-- Copyright 2021 Polycular e.U. -->
<svg width="100%" height="100%" viewBox="0 0 180 180" version="1.1" xmlns="http://www.w3.org/2000/svg" xmlns:xlink="http://www.w3.org/1999/xlink" xml:space="preserve" xmlns:serif="http://www.serif.com/" style="fill-rule:evenodd;clip-rule:evenodd;stroke-linejoin:round;stroke-miterlimit:2;"><path d="M180,18c0,-9.934 -8.066,-18 -18,-18l-144,0c-9.934,0 -18,8.066 -18,18l-0,144c-0,9.934 8.066,18 18,18l144,0c9.934,0 18,-8.066 18,-18l0,-144Z" style="fill:#f66;"/><g id="Shield"><path d="M90,170.017c-4.551,-2.136 -8.973,-4.578 -13.233,-7.317c-18.394,-11.827 -33.002,-28.694 -42.085,-48.592c-9.083,-19.899 -12.258,-41.991 -9.146,-63.644c0.631,-4.391 1.515,-8.727 2.644,-12.987l61.824,-19.994l61.815,19.991c1.13,4.261 2.014,8.598 2.645,12.99c3.112,21.653 -0.063,43.745 -9.146,63.644c-9.083,19.898 -23.692,36.765 -42.085,48.592c-4.26,2.739 -8.682,5.181 -13.233,7.317Z" style="fill:#cfd8dc;"/><path d="M86.602,177.259c2.153,1.01 4.643,1.01 6.796,0c4.871,-2.285 9.603,-4.899 14.161,-7.83c19.684,-12.656 35.317,-30.706 45.037,-51.999c-0,-0 -0,-0 -0,-0c9.719,-21.294 13.116,-44.933 9.787,-68.103c-0.676,-4.701 -1.622,-9.342 -2.831,-13.902c-0.696,-2.63 -2.682,-4.726 -5.271,-5.563l-61.815,-19.991c-1.601,-0.517 -3.323,-0.517 -4.924,0l-61.824,19.994c-2.589,0.837 -4.575,2.933 -5.271,5.563c-1.208,4.559 -2.154,9.2 -2.83,13.898c-3.329,23.171 0.068,46.81 9.787,68.104c0,-0 0,-0 0,-0c9.72,21.293 25.353,39.343 45.037,51.999c4.558,2.932 9.29,5.545 14.161,7.83Zm3.398,-7.242c-4.551,-2.136 -8.973,-4.578 -13.233,-7.317c-18.394,-11.827 -33.002,-28.694 -42.085,-48.592c-9.083,-19.899 -12.258,-41.991 -9.146,-63.644c0.631,-4.391 1.515,-8.727 2.644,-12.987l61.824,-19.994l61.815,19.991c1.13,4.261 2.014,8.598 2.645,12.99c3.112,21.653 -0.063,43.745 -9.146,63.644c-9.083,19.898 -23.692,36.765 -42.085,48.592c-4.26,2.739 -8.682,5.181 -13.233,7.317Z" style="fill:#1d83d4;"/><path d="M90,17.484l0,152.533c-4.551,-2.136 -8.973,-4.578 -13.233,-7.317c-18.394,-11.827 -33.002,-28.694 -42.085,-48.592c-9.083,-19.899 -12.258,-41.991 -9.146,-63.644c0.631,-4.391 1.515,-8.727 2.644,-12.987l61.82,-19.993Z" style="fill:#b4bcc0;"/></g><g id="Lock"><g><path d="M58.875,75.981c-1.563,-0 -2.831,1.268 -2.831,2.832l0,40.669c0,1.564 1.268,2.831 2.831,2.831l62.26,0c1.563,0 2.83,-1.267 2.83,-2.831l0,-40.669c0,-1.564 -1.267,-2.832 -2.83,-2.832l-62.26,-0Zm35.761,27.8c-2.558,2.559 -6.705,2.559 -9.262,-0c-2.558,-2.559 -2.558,-6.708 -0,-9.267c2.557,-2.559 6.704,-2.559 9.262,-0c2.557,2.559 2.557,6.708 -0,9.267Z" style="fill:#2196f3;"/><path d="M90,75.981l0,16.614c-1.675,0.001 -3.349,0.641 -4.626,1.919c-2.558,2.559 -2.558,6.708 -0,9.267c1.277,1.278 2.951,1.918 4.626,1.919l0,16.613l-31.125,0c-1.563,0 -2.831,-1.267 -2.831,-2.831l0,-40.669c0,-1.564 1.268,-2.832 2.831,-2.832l31.125,-0Z" style="fill:#1d83d4;"/></g><ellipse cx="90" cy="99.115" rx="9.932" ry="9.937" style="fill:#00ff83;"/><path d="M90.005,38.915c-13.214,0 -23.927,10.718 -23.927,23.939l0,13.127l6.174,-0l0,-13.127c0,-9.809 7.948,-17.761 17.753,-17.761c9.804,0 17.752,7.952 17.752,17.761l-0,13.127l6.174,-0l0,-13.127c0,-13.221 -10.712,-23.939 -23.926,-23.939Z" style="fill:#828282;"/></g></svg>
